<?xml version="1.0" standalone="no"?>
<!DOCTYPE svg PUBLIC "-//W3C//DTD SVG 20010904//EN"
 "http://www.w3.org/TR/2001/REC-SVG-20010904/DTD/svg10.dtd">
<svg version="1.0" xmlns="http://www.w3.org/2000/svg"
 width="460.000000pt" height="460.000000pt" viewBox="0 0 460.000000 460.000000"
 preserveAspectRatio="xMidYMid meet">
<metadata>
Created by potrace 1.14, written by Peter Selinger 2001-2017
</metadata>
<g transform="translate(0.000000,460.000000) scale(0.100000,-0.100000)"
fill="#000000" stroke="none">
<path d="M2275 4486 c-11 -7 -127 -74 -257 -150 l-237 -136 -294 0 -293 0 -84
-146 c-47 -80 -98 -169 -114 -198 -99 -175 -81 -157 -306 -287 -113 -65 -226
-131 -252 -146 l-48 -28 0 -293 0 -293 -150 -260 -150 -260 88 -152 c49 -84
100 -172 114 -197 14 -25 42 -73 62 -107 l36 -61 0 -294 0 -293 153 -89 c83
-49 188 -109 232 -134 44 -24 91 -52 105 -62 20 -15 78 -107 175 -278 6 -10
39 -68 75 -130 l64 -112 294 0 294 0 61 -36 c34 -20 78 -46 97 -57 19 -10 108
-62 198 -113 l162 -94 123 71 c67 40 142 83 167 97 25 14 86 49 137 78 l91 54
294 0 293 0 140 243 c77 133 149 251 160 262 11 11 129 83 263 160 l242 139 0
294 0 293 111 192 c62 106 120 208 131 227 11 19 29 49 39 67 l20 31 -29 49
c-15 26 -31 55 -35 63 -4 8 -17 31 -28 50 -12 19 -64 108 -115 197 l-94 162 0
293 0 294 -242 139 c-134 77 -252 149 -263 160 -11 11 -83 129 -160 263 l-139
242 -294 0 -294 0 -66 39 c-37 21 -84 48 -105 60 -21 12 -108 62 -192 111 -85
50 -156 90 -157 90 -2 0 -12 -6 -23 -14z m137 -166 c57 -33 110 -64 118 -70 8
-5 31 -17 50 -27 l35 -18 -157 -3 c-87 -1 -228 -1 -314 0 l-156 3 63 36 c35
20 105 59 154 87 50 29 93 52 97 52 3 0 53 -27 110 -60z m-813 -224 c-11 -10
-511 -297 -514 -294 -1 2 36 69 82 151 l85 147 176 0 c96 0 173 -2 171 -4z
m1610 -238 l418 -242 154 -266 c84 -146 193 -333 241 -417 l88 -152 0 -491 0
-492 -48 -81 c-26 -45 -51 -89 -55 -97 -4 -8 -13 -24 -20 -35 -7 -12 -90 -156
-186 -321 l-175 -301 -334 -194 c-184 -107 -344 -198 -356 -204 -11 -5 -23
-12 -26 -15 -3 -3 -31 -20 -62 -38 l-58 -32 -490 0 -490 0 -418 241 -418 242
-242 418 -242 418 0 491 0 491 242 418 242 419 416 240 415 241 493 0 493 1
418 -242z m223 95 c47 -82 85 -149 83 -151 -2 -2 -505 284 -514 294 -2 2 75 4
171 4 l175 0 85 -147z m-2637 -451 c-5 -4 -16 -18 -24 -31 -7 -14 -24 -44 -37
-67 -13 -24 -53 -93 -89 -154 -36 -61 -65 -113 -65 -115 0 -3 -80 -137 -86
-144 -2 -2 -4 75 -4 171 l0 175 148 86 c81 47 152 86 157 86 7 1 7 -2 0 -7z
m3188 -91 l127 -73 0 -176 c0 -96 -2 -173 -4 -171 -9 10 -296 510 -296 515 0
4 10 0 23 -8 12 -8 79 -47 150 -87z m-3595 -1276 l-3 -155 -85 147 c-47 81
-86 152 -88 158 -2 10 36 80 121 223 15 26 33 58 40 72 10 20 12 -2 15 -133 1
-86 1 -227 0 -312z m3916 312 c47 -81 86 -152 86 -156 0 -7 -166 -300 -176
-310 -2 -2 -4 137 -4 309 0 172 2 311 4 309 2 -2 42 -71 90 -152z m-3684
-1072 c0 -2 37 -65 81 -141 45 -77 84 -145 87 -152 2 -7 -30 7 -73 32 -42 25
-78 46 -80 46 -2 0 -35 18 -74 41 l-71 41 0 176 0 177 65 -109 c36 -60 65
-110 65 -111z m3490 41 l0 -174 -151 -85 c-83 -48 -149 -82 -147 -78 5 14 292
511 295 511 2 0 3 -78 3 -174z m-648 -738 c-33 -57 -71 -123 -85 -148 l-25
-45 -179 -3 c-151 -2 -175 0 -158 11 11 7 121 71 245 142 124 70 231 134 239
141 31 28 21 2 -37 -98z m-2120 -44 c139 -80 255 -148 257 -150 2 -2 -75 -4
-171 -4 l-175 0 -73 128 c-41 70 -80 137 -88 150 -8 12 -12 22 -8 22 3 0 120
-66 258 -146z m1163 -319 c-60 -36 -132 -77 -160 -91 l-50 -26 -150 87 c-82
48 -152 89 -154 91 -2 2 137 4 310 4 l314 0 -110 -65z"/>
</g>
</svg>
